<svg xmlns="http://www.w3.org/2000/svg" viewBox="0 0 190.23 213.91"><title>ink_9</title><g id="レイヤー_2" data-name="レイヤー 2"><g id="レイヤー_1-2" data-name="レイヤー 1"><path d="M180.06,110c-4.11.3-5.25,6.12-2.44,8.31s7.58,1.14,8-2.55A5.19,5.19,0,0,0,180.06,110Z"/><path d="M8.2,112a3.38,3.38,0,0,0-4.78,2.09c-.75,2.58,2.55,4.6,4.52,3.38S10.35,113.07,8.2,112Z"/><path d="M7.31,97.08a5.05,5.05,0,0,0-7.15,3.13c-1.12,3.86,3.81,6.87,6.76,5S10.53,98.72,7.31,97.08Z"/><path d="M159.76,43a6.94,6.94,0,0,0-.34-11.66c-3.85-2.39-9.19,1.5-9.62,5.79C149.28,42.28,156.15,45.72,159.76,43Z"/><path d="M168.32,30.71a2.44,2.44,0,0,0,1.37-3.51c-.94-1.7-3.65-1-4,.59S166.66,31.26,168.32,30.71Z"/><path d="M171.07,42.68a3.73,3.73,0,0,0,2.1-5.37c-1.43-2.6-5.57-1.6-6.17.89S168.53,43.5,171.07,42.68Z"/><path d="M144.55,180.53c2.91-1.8,3.61-6.54.39-8.18a5.05,5.05,0,0,0-7.15,3.13C136.68,179.34,141.6,182.35,144.55,180.53Z"/><path d="M69.08,15.43c.48-4.33-3.73-8.76-7.91-6.81a6.44,6.44,0,0,0-2.47,9.63C61.7,22.4,68.59,19.82,69.08,15.43Z"/><path d="M71.49,7.19c2.67,0,5.11-2.83,3.65-5.25a4,4,0,0,0-6-.9C66.78,3.13,68.78,7.17,71.49,7.19Z"/><path d="M183.68,101.57c-1.42,2.27-.27,5.83,2.56,5.86a4,4,0,0,0,3.93-4.67C189.61,99.68,185.11,99.28,183.68,101.57Z"/><path d="M42,148.77c-4.13,3.69-.58,10.82,4.2,10.85s9-5,6.45-9.27A7,7,0,0,0,42,148.77Z"/><path d="M179.21,52.24c-5.94-6.45-14.6-3.62-20.33,2-2.86,2.79-7.36,4.53-11.65,4.93-8.67.81-18.56-9.48-16.85-18.86,1.31-7.2,12-9.08,12.38-17.44.36-7.6-5.42-12-12.63-9.47-9.2,3.23-5.28,14.72-9.08,21.51-2.26,4-9.46,3.69-14.1,2.63-5.66-1.29-8.3-3.15-9.77-6.16-1.62-3.32-1-6,.7-11.27,2.35-7.46-2.47-10.36-7-9.65s-8.71,5-5.12,12c3.1,6,1.88,9.81-.56,12.13C80.54,39,70.07,43.95,63.27,40.3c-3.73-2-3.06-5.87-6-12.66-3.42-7.94-16.44-11.36-20.83-4.75-5.3,8,0,16.64,11.69,20.72,3.54,1.24,6.34,5.2,6.54,9.91.14,3.46-1.7,8.88-4.14,10.91A9.78,9.78,0,0,1,38,64.94c-4.48-3.14-8.38-5.45-13.66-5.75-6.15-.35-10.4,1.94-12.09,5.92A10.93,10.93,0,0,0,15,77c6.91,6,15.18-1.9,24.06,2.17,7.27,3.33,7.5,16.43,4,20.18-6.58,7-17.62.26-25.13,6.63-5.51,4.68-.55,15.89,8.52,14,7.19-1.46,9.86-7.68,15.26-7.83,6-.17,9.81,5.59,7.93,10.48-1.32,3.44-4.21,3.39-8.18,5.66a7.93,7.93,0,0,0-3.3,10.13c2.93,6.23,9.43,3.39,11.31-.65,4-8.46,8.85-6.95,10.92-5.5,4.14,2.9,3.76,9.28,4.06,16.74a216.21,216.21,0,0,1-.33,22.79c-.64,9.61-1.25,9.64-2.15,14.63-1.07,6,2.15,9.08,6.42,8.86,3.87-.2,6.86-4.58,6.15-8.48-1-5.68-2.57-10.79-2.57-16.48,0-9.28,1.55-15.51,3.06-19.27,2.08-5.19,3.5-6.94,8.93-6.92,6,0,8.11,10,9.12,14.1,1.18,4.79,1.78,12.26,0,26.25-.53,4.16-2.4,8.19-3.26,10.62-4.09,11.57,1,18.05,7.5,18.66,9.33.88,11.4-5.93,10.25-13.66-.64-4.27-2.63-8.71-3.09-14-1.34-15.16-.46-23.57.33-28.3,1.14-6.84,2.53-9.93,7.79-11.62,3.82-1.23,6.87,1.18,7.86,8.51a45.17,45.17,0,0,1-.12,12.33c-1.08,7.62,1.28,11.25,5.49,11.23,2.89,0,6.06-1.94,5.13-9.89-1.37-11.77-.73-15.93.12-21.51,1.59-10.37,7.33-15.53,11.27-16,4.7-.61,6.36,1.82,7.66,4.55,3,6.28,11,7.32,13.2,1.27,2.45-6.66-2.39-11.61-8.2-13.32-4.15-1.22-6.65-1.76-7.69-4.94-.76-2.36.75-10,3.58-13a7.58,7.58,0,0,1,10.48-.37c5.7,5.66,12.21,4.92,13.39-1.3,1.13-5.94-5.25-9.88-13-8.91-3,.37-6.09-1.22-8.38-3.5a12.42,12.42,0,0,1-3.59-8.18c-.49-7,2.53-13.08,7.35-14.56,5.41-1.65,10.35,1.82,17-.62C182.48,65,183.69,57.1,179.21,52.24Z"/></g></g></svg>