<svg xmlns="http://www.w3.org/2000/svg" viewBox="0 0 306.63 304.84"><title>ink_8</title><g id="レイヤー_2" data-name="レイヤー 2"><g id="レイヤー_1-2" data-name="レイヤー 1"><path d="M300.84,194.67c-6-1.58-10.45,6.11-7.54,10.59s10.2,5.33,12.61.31C307.52,202.22,306.67,196.22,300.84,194.67Z"/><path d="M294.1,214c-2.52,2-2.61,6.56.61,7.71a4.78,4.78,0,0,0,6.33-3.78C301.62,214.17,296.65,211.93,294.1,214Z"/><path d="M282.48,163.36c-8.64-6.91-16.7-7.09-24.64-2.17-11.76,7.28-9.31,20.18-12.89,17.18-3.88-3.24-7.29-5.38-12-5.35-13.34.08-14.28,7.56-18.75,6.36-5.09-1.37-6.39-13.84-18.87-13.3-.29,0-.58,0-.87.07a11,11,0,0,1,.14-2.52c.44-2.73,2.51-5.29,7.13-5.71,7.63-.69,5.65-12.38,10.94-13.46,7-1.44,10.64,4,15.61-.2,6.44-5.5,3.63-15.47-4.24-18.3h0a15.67,15.67,0,0,0-2.38-.81c-4.86-1.21-10.49.39-15.76.21-4.57-.16-9.51-2.23-8.89-9.93.22-2.76,3.48-6.27,8.31-5.43,10.41,1.83,14.21-2,13.33-6.39s-5.25-6.54-13.5-3c-4.84,2.08-9.22-.09-10.4-2-3.15-5.15-2.59-7.81-.59-10.56a14.59,14.59,0,0,1,10.77-6c9.13-.47,12.89-1.58,17-7.43,4.83-6.84.56-15.19-7.22-16.89-6.87-1.5-13.14,1.9-17.37,7.08-3.64,4.46-11.74,14-23.05,5.27-13-10,9.08-25.24,13.1-31.36,9.12-13.9-4.43-29.76-19.57-22.1-7.12,3.6-8.71,11.21-9.71,18.49-.8,5.79.72,13.29-5,16.3-8.58,4.48-28.73.58-29.81-8.61-.83-7,1.36-11.57,2.77-18.17,1.55-7.26-.51-14.58-8.51-16.49A13.05,13.05,0,0,0,102,16.91c-2.92,9.67,12.92,27.5,4.21,34.91h0l-.07.06-.31.25-.15.11-.4.28-.12.07-.39.24-.11.06-.51.26-.12.06-.57.26h0c-4,1.68-8.55,1.61-10.81-.39-3.78-3.34-5-6-4.95-9.42,0-5-5.43-7.32-8.41-6.33-3.94,1.32-7.09,6.11-2,11.46C80.7,52.3,83,54.4,83,58.48c0,7.36-3.68,8.9-5.88,9.54h0a9.85,9.85,0,0,1-1.16.26h0c-11,1.78-15.58-17.76-21.66-23.7-8.35-8.16-22.25-5-25.43,6.46-4,14.42,9.22,25,21.47,26.81C58,79,62.17,83.25,60.95,89.69,59.86,95.43,53.65,98.78,47,94s-14.14-4.86-16.13,1.18,5,11.2,13.13,9.92c6.78-1.06,12.53,1.85,11.72,8.57-.63,5.28-4.09,7.9-11,6.85s-13.24-6-21.54-3.3a10.33,10.33,0,0,0-6.13,15h0c1.94,4,7.69,9.47,16.09,10.17s15.27-2.52,19.48.84A8.63,8.63,0,0,1,54.93,154a15.4,15.4,0,0,1-1.77,2h0l-.76.61.16-.11C47.61,160.3,37,160.55,35,167.07a9.14,9.14,0,0,0,6.89,11.79A8.06,8.06,0,0,0,48.57,177h0c4.23-3.29,6.67-6,12.19-5,6.13,1.12,2.49,8.89,5.68,13,5.38,7,8.19,1.52,11,9,3.21,8.55,8.55,31.81,5.82,46.65-.67,3.66.21,10.91,8,10.14,5.53-.54,7.78-5.95,6.59-11.92-1.95-9.7,0-16.81,2-21.3,1.66-3.73,4.63-4.17,8.37-2,8.22,4.86,8.44,52.48,8.59,62.65.14,9.08-1.56,25.6,10.12,26.44,9.33.67,11.2-8.75,11.84-20.42.77-14.06.67-39.09,4.05-50.11,2.29-7.46,6.85-9.62,10.07-5.79,3.71,4.41-.19,12.83,9.34,15.43,5.95,1.62,11.27-2.61,11.13-15.64-.12-10.91.33-35.92,3.94-41a14,14,0,0,0,5.63,11c10.69,8.28,17-1.58,20.8.11,5.56,2.45,2.62,8.54,10.13,16.34,7.13,7.41,18,9.25,28.64,1.5,6.11-4.46,8.4-9.88,9.94-16.79.9-4,6.7,4.82,14.45,6.49,10,2.17,20.27-3.63,23.87-16.28C292.93,182.19,291.4,170.49,282.48,163.36Z"/><path d="M235,230.45c-.47,5.25,4.73,10.49,9.73,8,3.34-1.65,6.38-6.89,2.74-11.71S235.5,225.13,235,230.45Z"/><path d="M58,30.66c9.5-6.15,1.52-21.82-8.41-14.9-3.92,2.73-5.74,7.92-2.7,12C49.3,31,54.4,33,58,30.66Z"/><path d="M244.45,111.14c2.91-6.5-5.66-13.91-10.79-7.84C227.05,111.11,240.86,119.15,244.45,111.14Z"/><path d="M52.24,7c4.24-1,3.44-7.8-1.12-7C46.72.88,48,8.08,52.24,7Z"/><path d="M70.48,15.89c6.44-1.59,5-11.84-1.83-10.36C62.23,6.9,64.26,17.43,70.48,15.89Z"/><path d="M227.63,160.78c-3.39-1.94-7.2.26-8.55,3.76-2.87,7.42,8.88,12.88,12.09,5.72C233,166.19,231.23,162.84,227.63,160.78Z"/><path d="M9.9,94c-8.62-3.41-14.15,10.59-5.67,13.38S18.82,97.5,9.9,94Z"/><path d="M47.14,194.31c-3.64-1-6.13,1-7.25,3.64a4.84,4.84,0,0,0,2.75,6.7,5.34,5.34,0,0,0,7.28-2.75C50.82,199.76,50.78,195.33,47.14,194.31Z"/></g></g></svg>