<svg xmlns="http://www.w3.org/2000/svg" viewBox="0 0 149.2 160.94"><title>ink_11</title><g id="レイヤー_2" data-name="レイヤー 2"><g id="レイヤー_1-2" data-name="レイヤー 1"><path d="M108.84,65c.45-11.37,14.22-7.62,15.14-21.21.34-5.07-5.26-9.5-10.25-8.52-5.76,1.13-9.92,6.7-12,12.18-2,5.22-10.38,7.82-15.62,5.13-6.82-3.51-7.5-10.67-6.23-14.89,1.42-4.75,5.19-19.42,2.58-30C81.27,2.88,76-.87,71.13.18c-5.81,1.25-8.29,8.36-8,14.29s5.91,19.39,2.31,31.67c-.43,1.46-2.3,4.76-5.07,5.3-9.78,1.91-15.16,2.51-23.54,16.09-2.1,3.4-9.86.67-15.08-4.68C18.33,59.28,11.71,58.32,6,62.12A9.91,9.91,0,0,0,2.26,74.25c1.72,4.63,8,7.59,14.27,7.18C25.79,80.83,30,87,30,93.6c0,7.48-4.91,12.27-12.12,12.29-3.86,0-9.27-.64-13.6,2A8.53,8.53,0,0,0,.4,117.66c1.85,5.34,7,7.56,13.13,4.57,5.38-2.62,13.5-8.15,18.37-7.28,4.55.81,6.77,4.68,6.63,8.91-.12,3.6,2.61,7.22,9.49,5,4.73-1.49,8.25,3,8.9,7,.73,4.57-.7,6.11-3.74,10.86-3.56,5.57-1.54,10.54,1.85,11.88a10,10,0,0,0,11.11-2.17c2.77-2.92,2.28-7.14,2.19-12.6-.07-4,1.23-7.54,4.4-10,2.43-1.9,7.42-3.49,12.61-3,5,.48,6.78,5.36,7.27,7.24,2.73,10.4,19.31,3.45,10-5.86-3.45-3.47-5.13-7.83-2.19-11.67,2.72-3.55,7.71-7.26,12.37-7.62,6.21-.48,13.47,8.67,20.76,11.39,5.05,1.89,11.52,2.11,14.37-2.48,3.2-5.16-.39-11.65-4.57-13.84-8.19-4.28-21.34-3.43-25.94-7.38-3.2-2.75,3.66-13.72.51-21.75C115.19,71.84,108.59,71.46,108.84,65Z"/><path d="M18.95,141c-2.51-3.95,1.61-10.73,6.88-9.77,4.38.8,7.95,6.62,5.16,10.39A7.18,7.18,0,0,1,18.95,141Z"/><path d="M27.34,41.17c5.09-.08,7.34,6.29,4.89,10.44s-10.59,3.69-11.73-1.85A7.11,7.11,0,0,1,27.34,41.17Z"/><path d="M5.12,42.07c-.66-3,2.7-5.07,5.36-4.13s3.39,5.79.37,7.13A4.16,4.16,0,0,1,5.12,42.07Z"/><path d="M94.89,157.56c-.66-3,2.7-5.07,5.36-4.13s3.39,5.79.37,7.13A4.16,4.16,0,0,1,94.89,157.56Z"/><path d="M138,63c2.84,3.17.19,8-3.69,8.68S126.2,67,129,63.31,136.06,60.9,138,63Z"/><path d="M36.61,150.24c2.22,2.48.15,6.25-2.88,6.78s-6.29-3.68-4.15-6.56A4.53,4.53,0,0,1,36.61,150.24Z"/></g></g></svg>