<svg xmlns="http://www.w3.org/2000/svg" viewBox="0 0 333.56 274.44"><title>ink_3</title><g><path d="M291.55 156.52a20.19 20.19 0 0 0-5.53 15.2c-10.81 1.48-14.61 12.09-19.67 11.62-9.47-.87-8.13-11.37-23.13-19.21-9.2-4.81-18.74-5.85-27.56-1.49a4.15 4.15 0 0 1-5.92-4.36 27.57 27.57 0 0 1 12.1-18.73c11.46-7.12 24.87 4.54 35.85-3.8 11.86-9 6.3-24.87-10-26.52-10.22-1-15.24 9.19-22.67 10.6-6.46 1.23-14.1-6-17.81-14-2.45-5.29-3.3-12.68 1.58-18.14 3.88-4.34 9.66-2.11 14.09-8.93 4.62-7.11-1.09-14.06-7-15-6.88-1.18-10.28 1.54-14.88 12.24-2.11 5-10.49 8.17-18 3.35-7.19-4.59-8-10.39-6.62-16.16a23.07 23.07 0 0 1 9.26-13.11c14.35-9.45 10.42-22.91 2.31-27-11.7-5.94-20.8-1.63-24.71 8.58-3.78 9.9-.62 13.35-3 21.24-2.31 7.65-6.76 10.28-14.42 11.25-7 .88-12.18-2.65-11.63-6.84 1.83-13.85-17.41-11.55-12.88 1 1.32 3.64-1.66 6.46-5.2 8.07-4.95 2.26-9.63 1.14-13.73-.61-11.94-5.12-8.48-15.6-10.19-21.18-3.31-10.77-16.9-14.93-24-7.07-9.2 10.13-1.06 22.84 9 28.79 7.18 4.25 11.6 6.46 12 12.9.26 4.79-4.19 13.63-9.19 16.28-4.36 2.27-9.81 1.58-11.83-2.16-4.28-7.94-13.46-9.54-17.58-1.12-3.72 7.6 4.66 12.38 12.27 13.17 4.65.49 10.76 7.19 7.32 18.08-3 9.43-11.89 10.57-18.93 10-7.89-.62-12-5.32-21.75-6.7-13.29-1.84-19.1 9.24-15.88 18.24 4.58 12.82 17.16 12.22 27.49 7.88 5.15-2.16 10-2.28 15.82-.59 11.71 3.41 24.53 26.89 14.5 43.16-5.38 8.72-20.27 5.67-25.08 16.35-4.38 9.71.88 18.42 11.59 18.83 13.65.52 15.21-16.18 23.13-23.64 6.23-5.87 16.74-2.79 22.46.24 7.3 3.86 12.13 13.27 6.13 23.09-11.42 18.7 21 23.5 17.11 2-.94-5.13 2.82-11.49 6.41-13.24 9.29-4.55 25.3-.76 28.07 6.76 2 5.57.74 9.45 1.05 19.79.37 12.1 9.67 19.78 20.27 14.81 12.13-5.69 8.09-16.18-.6-27.17-3.26-4.12-7-13.84-4.83-20.08 1.59-4.58 5.13-9.73 11.66-10.75h.05a4.14 4.14 0 0 1 4.72 3.59 31.45 31.45 0 0 0 4.43 12.59c9.11 14.72 23.59 20.66 37.66 16.73 19.37-5.41 17.43-18.3 24.65-18.74 8.23-.49 16.36 17.35 34.59 10.36 14-5.37 21.77-26.46 15.86-41 6.52-3.68 11.07-11.26 9.38-18.41-2.94-12.56-18.98-20.56-28.59-11.04zM330.32 128.77c-4.29-3.52-13.28-4.4-17.57 3.5-4.4 8.09 5.15 17.27 12.67 14.65s11.32-12.92 4.9-18.15zM310.95 224.55c-2.78 5.37 3.91 11.83 8.94 10.23s7.34-8.45 2.87-12.17c-2.99-2.48-9.1-3.3-11.81 1.94zM207.3 32.73c5.51 1.71 10-5.27 7.45-9.56s-9.29-5.38-11.74-.8c-1.63 3.06-1.08 8.68 4.29 10.36zM284.5 131.28c2.3-3-1-7.3-4.16-6.73s-5.4 4.46-3.15 7a4.74 4.74 0 0 0 7.31-.27zM266.75 140.28c-4.72.84-8.06 6.66-4.71 10.45a7.08 7.08 0 0 0 10.92-.4c3.43-4.45-1.43-10.91-6.21-10.05zM34.32 183.65c-9.14 2.54-11 12.14-6.56 18.17s15.07 3.27 18.34-3.07c3.9-7.64-4.57-17.11-11.78-15.1zM10.35 190.67a4.74 4.74 0 0 0-5 5.36c.48 3.73 5.84 4.48 7.69 1.82s.7-6.97-2.69-7.18zM7.51 166.4a7.08 7.08 0 0 0-7.44 8c.72 5.57 8.72 6.7 11.5 2.72s.99-10.41-4.06-10.72zM230.54 239.27c-4.72.84-8.06 6.66-4.71 10.45a7.08 7.08 0 0 0 10.92-.4c3.43-4.45-1.43-10.9-6.21-10.05zM138.81 255.34c-2.86 5.4.36 13.32 6.8 12.93 4.3-.26 9.89-4.51 8.17-11.28-1.78-6.93-12.08-7.12-14.97-1.65zM131.43 264.83c-3.47-1.4-8.1 1.06-7.46 5a5.53 5.53 0 0 0 7.4 4.27c4.11-1.56 3.58-7.85.06-9.27zM207 9.7c3-2.22 3.34-7.46-.32-9a5.53 5.53 0 0 0-7.51 4.06c-.89 4.36 4.76 7.24 7.83 4.94zM83.46 17c7.27-2.68 6.32-13.79.11-16.3s-14.3 1.88-13.16 8.76c.76 4.61 5.96 10.15 13.05 7.54z"/></g></svg>