<svg xmlns="http://www.w3.org/2000/svg" viewBox="0 0 276.66 278.32"><title>ink_5</title><g id="レイヤー_2" data-name="レイヤー 2"><g id="レイヤー_1-2" data-name="レイヤー 1"><path d="M143.43,26.3c-4.18,13.33,1.64,17.48-2.73,27.51-3.48,8-11.37,8.21-16.51,7.34-8.5-1.44-18.51-4.61-31.77,4.78-5,3.56-14,6.62-21.37.49-7.9-6.61-6.62-14.14-13.24-22.06-5.75-6.88-17.43-8.95-25.5-4.31s-11,15.32-7.57,23.8c7.91,19.7,29.5,8.75,35.72,23.71,3.64,8.77-6.89,27.93-16.73,25.41s-7.42-9.25-18.78-9.9c-11.18-.64-14.44,11.76-8.48,18.33,5.47,6,12.88,3.42,19.21,4.38,6.82,1,11.26,8.87,10.79,18.79s-3.82,18.1-13.76,17.81c-8.31-.24-17.84-2.68-26.85,3-7.87,4.94-8.48,21.49,2.24,27,17.55,9.11,23.77-12,38.79-12.94,11.16-.67,17.33,10.8,18.88,18.72,2.32,11.86,9.93,13.13,19.37,14.45,8.92,1.25,17.41,15,11,22.22-6.07,6.87-10.64,12.82-11.31,24-.55,9.08,2.24,17.14,13.6,19.07,13.44,2.29,22.36-4.89,22.16-20.07-.17-13-5.1-19.84-3-26,4.27-12.44,24.87-13.18,30.55-11,5.19,2,9,5.86,8.84,14.93-.1,7.7,2.37,14.36,7.93,18.38,5,3.58,13.2,2,16.2-3.23,3.21-5.61,1-13.77-4.49-18.71s-5.92-13.06-5.33-17.93c1.08-8.8,11.33-16.3,19.65-14.93,2.94.48,5.09,2,7.33,6.33,2.9,5.63,12.69,5.1,15.67-.43,2.46-4.57-.68-12.21-6.67-13.36-7-1.35-9.94-6.08-10.36-11.41-.85-10.93,1.71-25.35,15.87-27,8.47-1,21.35,9.51,35.89,3.64,17.33-7,13.84-28-3.59-32.05-16.84-3.9-24.53,10.7-37.06,5.22-9.14-4-12.31-20.92-8.94-27.4,3.72-7.15,14.52-7.23,20-9.51,8.74-3.65,12.75-13.78,8.46-21.69-3.64-6.72-15.73-8.19-22.48-2.88-8,6.32-6.72,10.3-14.28,14.66-5.07,2.93-15.89,1.13-22.68-5.83-5.8-5.94-8.55-15-4.68-20.92,5.71-8.69,13.3-13,14-23.91.53-8.47-3.86-16.74-13.13-18.9C153.69,11.46,145.56,19.51,143.43,26.3Z"/><path d="M89.58,46C82.89,50.66,70.72,44,72,34.73,73,27,82.92,20.34,89.72,24.91S98.05,40,89.58,46Z"/><path d="M276,117.35c-2.63,6.49-11.9,5.94-15.85.61s1-15.4,8.62-13.89C276.21,105.55,277.75,113,276,117.35Z"/><path d="M91.62,9.56c-3.55,1-6.33-3-5.4-6.39s6.72-4.59,8.57-.93A5.16,5.16,0,0,1,91.62,9.56Z"/><path d="M110.2,27.82c-5.3,1.52-9.46-4.51-8.07-9.54s10-6.86,12.81-1.39S113.74,26.8,110.2,27.82Z"/><path d="M199.32,245.36c-5.3,1.52-9.46-4.51-8.07-9.54s10-6.86,12.81-1.39S202.87,244.34,199.32,245.36Z"/><path d="M63.48,234.27c-3,7.43-13.62,6.8-18.14.7s1.14-17.63,9.87-15.9C63.72,220.76,65.49,229.31,63.48,234.27Z"/><path d="M246.56,109.24c-4.14-1.2-4.39-6.91-1.38-9.67s9.5-.37,9.05,4.4A6,6,0,0,1,246.56,109.24Z"/><path d="M47.12,210.58c-4.14-1.2-4.39-6.91-1.38-9.67s9.5-.37,9.05,4.4A6,6,0,0,1,47.12,210.58Z"/></g></g></svg>