<svg xmlns="http://www.w3.org/2000/svg" viewBox="0 0 240.42 207.86"><title>ink_2</title><g><path d="M24.46 89.66c-.35-4.77-7.1-6.09-9.64-2.83s-1.32 8.8 3 9.29a6 6 0 0 0 6.64-6.46zM79.4 5.68a3.93 3.93 0 0 0-2.4-5.55c-3-.87-5.34 3-3.92 5.25s5.04 2.8 6.32.3zM98.79 11.52a5.87 5.87 0 0 0-3.63-8.3c-4.48-1.29-8 4.42-5.86 7.85s7.59 4.19 9.49.45zM193.5 177.11a9.53 9.53 0 0 0 16-.47c3.29-5.29-2.06-12.62-7.95-13.2-7.07-.72-11.79 8.71-8.05 13.67zM206.21 193.45a3.93 3.93 0 0 0 5.65 2.21c2.73-1.51 1.68-5.86-.94-6.49s-5.58 1.61-4.71 4.28zM229.58 117.62a5.87 5.87 0 0 0 8.44 3.3c4.08-2.25 2.51-8.76-1.41-9.69s-8.33 2.4-7.03 6.39zM176.66 8.86c2.08 3.38 7.59 4.19 9.49.45a5.87 5.87 0 0 0-3.63-8.31c-4.52-1.28-7.97 4.43-5.86 7.86zM217 74.7c5 .56 10.16-4.33 7.9-9.18-1.51-3.24-6.49-6.26-11.18-2.86s-1.84 11.48 3.28 12.04zM226.54 77.51c0 3.1 3.29 5.93 6.1 4.24a4.58 4.58 0 0 0 1-7c-2.39-2.75-7.08-.39-7.1 2.76zM6.81 96.91c-2.63-1.65-6.81-.31-6.81 2.97a4.58 4.58 0 0 0 5.42 4.56c3.58-.64 4.05-5.86 1.39-7.53zM50 189.94c-4.28-4.79-12.56-.68-12.6 4.88s5.8 10.46 10.76 7.48c3.35-1.99 6.05-7.69 1.84-12.36zM170 204.83c8.49-7.43 4.2-16.95-2.29-23.6a18.49 18.49 0 0 1-5.27-12c-.93-10.07 13.27-27.1 28.87-24.32 8.36 1.49 10.55 13.9 20.24 14.37 8.82.42 13.93-6.29 11-14.67-3.75-10.68-17.1-6.81-25.27-10.64-6.43-3-7.25-12.06-6.65-17.39.76-6.8 6.54-13.39 15.94-11.75 17.9 3.12 11.72-23.38-3.7-13.79-3.67 2.28-9.72 1.32-12.16-.91-6.34-5.78-8.29-19.28-3.33-23.71 3.67-3.27 7.57-2 15.45-5.38 9.22-4 13.19-19.08 5.52-24.18-9.25-6.15-19.31 0-24.05 13.57-1.44 4.11-6 7.36-11.51 7.59-4 .17-11.62-4.16-14-7-4-4.79-2.42-8 .72-12.43 3.65-5.2 6.33-9.72 6.67-15.85.4-7.13-2.25-12.07-6.87-14a12.69 12.69 0 0 0-13.83 3.24c-6.94 8 3.51 19.37-4.18 27.71-8 8.66-33.62 9.09-38.88 6.28-9.86-5.27-4.07-20.56-13.84-26.49-10.58-6.48-21.1 2.67-17.42 15.71 2.31 8.2 11.72 9 15.08 14.26 2.92 4.61-.34 12.7-5.38 18-3.33 3.5-8.77 6.4-14.47 4.3-4.53-1.67-4.57-6.81-11.18-8.15-6.89-1.4-10.51 5.12-9.46 10 1.24 5.72 4.36 7.49 14 7.74 4.47.12 9.49 5.6 8.08 12.9-1.35 6.94-5.57 9.36-10.44 10a19.13 19.13 0 0 1-12.93-3.15c-11.66-8.2-20.84-1.09-21.55 6.44-1 10.83 5.07 16.54 14.14 16.44 8.79-.09 10.49-3.59 17.29-4.16 6.6-.55 10 2.08 13.07 7.7 2.8 5.1 1.66 10.2-1.74 11.05-11.24 2.81-3.61 16.94 4.68 9.64 2.41-2.13 5.49-.68 7.81 1.55 3.25 3.13 3.81 7.08 3.71 10.78-.29 10.74-9.42 11.26-13.2 14.29-7.3 5.83-6.37 17.58 1.86 20.7 10.61 4 17.94-6.14 19.47-15.7 1.09-6.83 1.45-10.91 6.29-13.19 3.58-1.69 11.76-1 15.35 2.13 3.08 2.67 4.2 7.08 1.94 9.78-4.82 5.72-3.26 13.28 4.49 13.9 7 .56 8.13-7.36 6.42-13.47-1-3.73 2.27-10.49 11.71-11.15 8.18-.57 11.77 6 13.49 11.55 1.92 6.27-.46 10.84 1.46 18.81 2.58 10.76 12.85 11.88 18.85 6.65z"/></g></svg>