<svg xmlns="http://www.w3.org/2000/svg" viewBox="0 0 191.09 242.68"><title>ink_7</title><g id="レイヤー_2" data-name="レイヤー 2"><g id="レイヤー_1-2" data-name="レイヤー 1"><path d="M183.25,92.7c-3.1-3-7.89-4.48-12.55-4.35-4.41.12-10,.3-14-1.48s-6.57-7.06-3.9-10.58a9,9,0,0,1,5.36-2.89c6.4-1.43,13.28-.33,19.43-2.59s9.81-9.3,5.89-14.5c-3-3.94-9.9-4.77-14.17-1.19-5.33,4.47-10.51,7.29-15.4,6.7-6.23-.76-8.16-4.65-6-9.06,1.3-2.61,4.5-3.53,6.83-5.29,3.27-2.45,4.84-7.19,3.11-10.88S151,31.18,147.6,33.5c-3.79,2.61-5.1,7.54-9,9a7.37,7.37,0,0,1-9.88-5.38c-1-4.87,2-10.95,5.06-14.89,3.95-5.17,9.09-11.38,6.45-17.33-2.36-5.31-10.09-6.27-15-3.21s-8,7.43-9.31,14.28c-1.08,5.7-.18,12.42-4,16.76s-11,4.39-14.29.71c-3-3.31-.09-8.24-1.69-12.41a7.5,7.5,0,0,0-8.12-4.54,7.17,7.17,0,0,0-5.91,6.77c-.13,4.13,2.34,6,1.43,8.69-1.09,3.19-6.26,4.2-9.22,2.59s-4.61-4.91-5.5-8.16-1.2-6.67-2.45-9.81c-2-4.93-6.56-9-11.85-9.35s-10.81,3.58-11.32,8.86c-.27,2.77.74,5.49,1.88,8,1.89,4.25,6.74,9,11.1,13,2.73,2.53,3.64,6.38,4,8.95a6.34,6.34,0,0,1-4.55,6.54c-2.58.62-5.22-1.13-7.13-3-3.55-3.42-7.12-7.63-11.09-11S25.69,34,20.55,34.83a9.5,9.5,0,0,0-7.89,11.25c.39,2.39,2.87,5.83,8,8.17,4.11,1.86,19.39,3.17,23.22,5.67,4.92,3.21,3.33,7.19,1.72,7.83-2.31.92-4.56-.23-7.08-1.74a12.06,12.06,0,0,0-9.08-1.68C25.34,65.4,24.72,69.9,27.12,72c2.06,1.8,6.14,1.37,8.47,1.45s5.2,1.38,5,3.71c-.2,2.8-4.91,4.23-7.68,3.82-5.1-.75-12.11-1.39-17.14-.26S5.95,85,4,89.71s-.2,11.12,4.5,13.21c5.06,2.25,10.85-.88,15.16-4.37S32.41,90.88,38,90.79c4.2-.07,4.64,4.89,2.1,8.24s-8.54.93-11.18,4c-1.57,1.86-.89,5,1,6.45a7.52,7.52,0,0,0,7,.81c2.49-.84,4.68-2.59,7.29-2.92s4.26,2.23,3.34,4.69a4.59,4.59,0,0,1-1.35,1.74c-2.73,2.42-4.65,2.54-7.91,4.17s-6.41,4.2-7.18,7.77a6.6,6.6,0,0,0,6.87,7.83c4.19-.2,6.62-4.66,8.08-8.56,1.3-3.47,5.69-5.87,8.06-4.2,2.9,2,1.81,4.84-2.16,10-2.2,2.88-4.58,6.07-3.95,9.64a5.85,5.85,0,0,0,8,4.16c5.63-2.36,2.06-12.7,7.4-10.22,5.69,2.63,4.52,19.29,5.22,23.88,1.9,12.51,6.82,4,4.2,20.51-.37,2.32-.88,5.29-.21,7.54.78,2.6,4,4,6,2.84,4.48-2.63-.48-24.86,3.77-29.28,3.2-3.33,7.38,4.66,9,9,4.77,12.44,5.41,31.14,4.08,47.41-.56,6.9-3.89,14.51-2.15,21.21,1,3.89,3.84,5.38,7.73,5.1a6.32,6.32,0,0,0,4.08-2.47c3.41-5.12,1-13.31.55-20.72-.93-16.82,0-30.16,3.9-49.27.81-4,2.55-8.89,6.6-9.13,2.29-.14,3.83,1.24,6.73,1.28,5.92.09,7.78-3.73,8.1-8.16.41-5.74,1.1-18.83,5.4-18.2,3.89.57,6.26-3.51,5.88-8.25-.36-4.49,1.42-7.11,3.31-6.88,5.37.66,4.78,4.84,8.43,9.92,2,2.77,7.33,3.43,10,.77a7.21,7.21,0,0,0,1.86-7.09c-.85-3.95-4.22-7.19-7.71-9-7.58-4-9.44-8.92-8-11.76,2.47-4.94,10.79-2.84,16.7-.43s13.83,4.63,17.75-.41C187.3,99.4,186.36,95.74,183.25,92.7Z"/><path d="M149.35,149.83c2.42-4.69,11.38-4.55,13.44,1.14,1.72,4.72-1.92,11.52-7.19,11A8.1,8.1,0,0,1,149.35,149.83Z"/><path d="M164.65,38.2c-2-3.17,1.29-8.61,5.52-7.83,3.51.64,6.37,5.31,4.14,8.33A5.75,5.75,0,0,1,164.65,38.2Z"/><path d="M45.13,158.38c-2-3.17,1.29-8.61,5.52-7.83,3.51.64,6.37,5.31,4.14,8.33A5.75,5.75,0,0,1,45.13,158.38Z"/><path d="M179.54,113.89c1.6-4,8.86-4.56,11-.11,1.75,3.69-.67,9.48-5,9.42A6.59,6.59,0,0,1,179.54,113.89Z"/><path d="M75,8.19c-.32-3.21,3.58-5,6.32-3.64S84.25,11,80.82,12A4.51,4.51,0,0,1,75,8.19Z"/><path d="M15,68.51c2.16,2.39.08,6.12-2.92,6.69s-6.18-3.5-4-6.35A4.51,4.51,0,0,1,15,68.51Z"/><path d="M138.21,145.71c-.22-2.17,2.42-3.36,4.28-2.46s2,4.38-.36,5.07A3,3,0,0,1,138.21,145.71Z"/><path d="M.52,71.53c1.14-1.56,3.54-.84,4.21.82s-1.34,4-3.24,3.15A2.64,2.64,0,0,1,.52,71.53Z"/><path d="M38.57,146.19c-.22-2.17,2.42-3.36,4.28-2.46s2,4.38-.36,5.07A3,3,0,0,1,38.57,146.19Z"/><path d="M117.88,178.46c1.92-1,4,1,3.9,3s-3.32,3.47-4.83,1.58A3,3,0,0,1,117.88,178.46Z"/></g></g></svg>