<?xml version="1.0" standalone="no"?>
<!DOCTYPE svg PUBLIC "-//W3C//DTD SVG 20010904//EN"
 "http://www.w3.org/TR/2001/REC-SVG-20010904/DTD/svg10.dtd">
<svg version="1.0" xmlns="http://www.w3.org/2000/svg"
 width="512.000000pt" height="512.000000pt" viewBox="0 0 512.000000 512.000000"
 preserveAspectRatio="xMidYMid meet">
<metadata>
Created by potrace 1.14, written by Peter Selinger 2001-2017
</metadata>
<g transform="translate(0.000000,512.000000) scale(0.100000,-0.100000)"
fill="#000000" stroke="none">
<path d="M2280 4414 c-826 -130 -1462 -776 -1580 -1606 -16 -111 -13 -389 5
-514 120 -825 762 -1467 1586 -1588 151 -23 402 -21 559 4 266 41 524 142 750
292 340 227 612 586 739 974 72 219 86 315 86 584 0 206 -3 249 -23 350 -26
128 -79 298 -122 394 l-28 63 -62 -58 c-37 -34 -94 -74 -139 -96 -42 -21 -78
-39 -79 -40 -2 -1 12 -48 31 -105 65 -187 81 -287 81 -508 0 -166 -3 -211 -23
-300 -134 -623 -588 -1071 -1221 -1207 -67 -14 -128 -18 -285 -18 -212 1 -265
8 -443 61 -561 168 -981 658 -1068 1246 -22 149 -15 402 15 535 156 703 780
1213 1484 1213 222 0 395 -32 591 -111 59 -23 107 -40 109 -38 1 2 15 31 32
64 18 37 57 88 102 133 l72 74 -93 44 c-120 57 -302 116 -442 145 -143 29
-488 36 -634 13z"/>
<path d="M3710 4109 c-114 -22 -222 -108 -274 -219 -28 -59 -31 -74 -31 -165
0 -88 3 -107 27 -158 35 -73 116 -155 193 -193 54 -26 70 -29 160 -29 88 0
107 3 157 27 68 32 147 103 183 164 15 25 33 76 41 115 42 202 -87 407 -288
454 -70 16 -101 17 -168 4z"/>
<path d="M2358 3390 c-309 -76 -554 -323 -628 -632 -27 -113 -27 -283 0 -396
93 -386 431 -652 830 -652 338 0 634 189 775 493 99 214 101 491 7 700 -112
245 -328 426 -585 487 -110 26 -291 26 -399 0z"/>
</g>
</svg>
